<svg xmlns="http://www.w3.org/2000/svg" viewBox="0 0 1744 1744" fill="none" shape-rendering="auto" aria-hidden="true"><!-- Generated by DiceBear (https://www.dicebear.com) --><metadata xmlns:rdf="http://www.w3.org/1999/02/22-rdf-syntax-ns#" xmlns:xsi="http://www.w3.org/2001/XMLSchema-instance" xmlns:dc="http://purl.org/dc/elements/1.1/" xmlns:dcterms="http://purl.org/dc/terms/"><rdf:RDF><rdf:Description><dc:title>Notionists</dc:title><dc:creator>Zoish</dc:creator><dc:source xsi:type="dcterms:URI">https://heyzoish.gumroad.com/l/notionists</dc:source><dcterms:license xsi:type="dcterms:URI">https://creativecommons.org/publicdomain/zero/1.0/</dcterms:license><dc:rights>Remix of “Notionists” (https://heyzoish.gumroad.com/l/notionists) by “Zoish”, licensed under “CC0 1.0” (https://creativecommons.org/publicdomain/zero/1.0/)</dc:rights></rdf:Description></rdf:RDF></metadata><defs><g id="head-variant01-ababda4c"><path d="M553 723.7c-99 297-363.7 388.6-503.6 19.8-19.3-50.7 31-69.5 66.2-91.9 24.1-15.3 36.8-28.5 35.3-42.2C144 545 114 365.6 114 365.6l-3-5.8s.7-1.6-2.2 1.2c-3 3-9.9 34.2-37 34.2-24.5 0-49.2-10.9-61-86.3C6.3 281.6 8.7 210 39 197c12.5-5.3 24-7.2 35.2-.8s-13-22 112-126C267.5 2.4 395.8-7.5 447.6 4S551 40.8 574 94.5c27.8 65-25.9 114.3-14 262.5-2.2 53.6.8 171.2-146.6 210.6-28 7.5-19.3 48.4 22.7 58.4 67 21 117 72.3 117 97.9" fill="#ffffff"/><path d="M7.6 228.9c5.2-16.1 23.7-44.7 42.2-42C71.7 185 83.8 198 94 213a140 140 0 0 1 22.4 61.5c.5 3.7 1 7.6-1.2 11.3-4.5.6-4.9-3-5-5.6-.5-20.7-9.7-38.7-18.9-56.1-6.6-12.5-16.2-24.6-31.4-27.6-17.2-3.5-33 12-40.8 32.2-14.5 37.6-12 74.6 1.4 111 5.8 15.9 13.1 32.1 27.8 43.2 14.8 11.3 32.7 9.3 43.6-5.7 2.5-3.4 5.6-6.7 7-10.6 2.1-5.7 5.4-11 11.3-10.3 6.8 1 8 8.3 8.7 14C126.2 436 137 501 147 566c2.6 17.1 5.6 41.7 3.6 52.1-.7 3.7 0 7-4.5 7.8-4.9.7-7-2.1-7.7-6.5-2.3-17-3-23.6-4-49.6-1.2-34.3-9.6-68-15.3-102a604 604 0 0 1-10.9-97c-8.5 12.7-14.8 23.3-26.5 27.2a40.5 40.5 0 0 1-46.1-12.6 128 128 0 0 1-28.8-55.8c-8.4-34-9.9-67.1.9-100.6m572.7-71.5c6.5 4.4 5.7 10 3.7 15.2-21.6 55.7-17.6 113.8-15.8 171.6 2.1 66.4-14.5 126.8-58.7 177.5-15.4 17.6-35.8 29.8-56.5 40.3-21.4 11-25.9 20.1-19.2 43.6 1.3 4.7 4.4 9.6-.2 14.4s-9.8 3.1-15.4 1.7a406 406 0 0 1-137-68.3c-6-4.5-11-10.6-15.8-16.5-2.5-3-3-7.8.5-10.4 3.7-2.9 6.4.1 9.8 2.7A146 146 0 0 0 352 561c21 2.1 41.5-.2 62.3-.1 11.5 0 20.6-5.9 29.5-10.8 27.8-15.5 54.3-32.8 72.2-60.7a230 230 0 0 0 31.6-80.9c9.6-48 5.3-96.6 5.5-146.2 4.2-36.9 8.1-72.7 27.3-104.8M60.6 238.6c21 1 34.7 28 35.8 70.3-6 18.8-12.8-1-21 2.7-4 14.5 15.1 20 16.3 34-14-.6-21.1-9.3-25.9-19.8-5.5-12.2-1-22.2 9.7-29.9-6.7-13.4-21.7-18-30-30.5 10-3.5 15.1 2.9 21 6.8 5.9 4 9 11.3 17 15-.8-19.8-11.7-34-23-48.6" fill="#000000"/></g><g id="clothes-variant21-ababda4c"><path d="M1330 719.7 43 716.4s37.5-207.2 95-328.7C263.9 121.4 516.4 72 538.3 84.4c32 18 62.3 40.7 151.4 40.7 91.1 0 148.8-39.5 148.8-39.5s135.3 32.3 200.6 69.5c83.2 47.4 177 187 220.2 295.9 46 115.6 70.7 268.7 70.7 268.7" fill="#ffffff"/><path fill-rule="evenodd" clip-rule="evenodd" d="M1323.8 719.7a2718 2718 0 0 1-17.3-77.9l-8.4-39c-8-36.6-18.6-72.3-30-107.6a678 678 0 0 0-42.1-102.8l-7-13.7a803 803 0 0 0-27.6-50.7c-27.4-45.3-58.1-88.3-97-124A335 335 0 0 0 992 139q-10.4-4.3-20.7-9.1-11.8-5.6-24-10.5c-10.6-4-14.4-.7-18.8 7.3-8 14.7-18 28-32.9 36-40.3 21.6-82.3 33.2-126.5 13.6a138 138 0 0 1-48.6-35.4c-6-7-12.2-8.3-20.5-9.6-22-3.2-36.7 4.8-49 23.2-16.3 24.2-42.3 33.2-69.5 35.8a147 147 0 0 1-108-31.8 203 203 0 0 1-44.6-44.3l-9.7 4.5q-10.4 4.5-19.8 10c-9.6 6-19.7 11-29.8 16a347 347 0 0 0-34 18.9 454 454 0 0 0-85.4 73.7A604 604 0 0 0 163.9 360q-28.7 52.3-50 108.1a1216 1216 0 0 0-34 102 562 562 0 0 0-20.2 102.2q-1.1 10.2-3.7 20.4c-1.9 8.3-3.8 16.8-4.1 25.8-5.5 1-10.6 1-16.9 1q6.7-49.5 16-98.8 3.6-18 8.3-35.4l5.3-21.5a708 708 0 0 1 20-66.6l.9-2.7q13.4-40.5 30.4-79.4a836 836 0 0 1 52.6-99.6q25.5-40.9 57.1-77c37.3-43 79.1-80.3 130-105.9l10.8-5.4c36-18.2 72-36.4 112-44.2q16.7-3.1 33-7.6c12.7-3.5 15.2-9.1 10.3-21.1l-1-2.2q-1.1-2.4-1.7-5v-.4c-.6-3.6-1.2-7.8 3.8-8.9 4.3-1 5.5 1.6 7 5l.6 1.1 4.5 9.7c4.8 10.8 9.6 21.7 18.6 30.6a101 101 0 0 0 59.7 27.2l5.3.7c24.8 3.3 49.7 6.7 75 5.4 35.3-1.8 70.2-5.5 104-16.5 5.2-1.7 9.7-4.8 14-8.3 7-5.8 6.5-10.6.5-16.8-8.9-9.2-11-20.6-10.3-32.6 4-1.5 7-.5 7.6 1.8 7 30.4 29.6 36 55.8 39 33.8 3.8 66.1 14.3 98.5 25a398 398 0 0 1 71.2 34.6l18.6 10.5a272 272 0 0 1 66.9 53.2c22.7 24.3 43.9 50 62.4 77.6 16.1 24 31.5 48.6 45 74.5a1007 1007 0 0 1 86.5 242c5.6 25.4 9.8 51.3 14.1 77.5q3.2 19.8 6.7 39.7c-3.2.9-6.7.9-11.2.9M600 170.7a84 84 0 0 0 49.7-37.7c-2.9-2.4-6-3-9.2-3.5l-2.8-.5q-9.9-2.2-19.9-3.9c-27-4.8-54-9.7-74-32.8-1.3-1.5-4.6-1.8-7-1.8-27.5-.5-53.4 6.9-79.4 14.3l-11.2 3.2c.8 5.6 2.6 9 5.8 12.2a224 224 0 0 0 39.6 32.5c32.9 21 67.9 30.7 108.4 18m224 .3c-31.6 4.3-57.1-9-81-27.6q-2.4-2.5-4.9-4.2c-3-2.4-5.7-4.5-6.9-8.4 10.1-3.8 20.6-5.8 31.1-7.9a177 177 0 0 0 38.4-10.4c4.3-1.4 8.7-2.8 11.8-5.8 16.7-16.2 36.2-15.6 56.2-10.6q19.4 5 39.5 11l19 5.6-5.6 6.5c-14.1 16.6-26.6 31.3-46.9 38.5-16.7 6-33.2 11-50.7 13.3" fill="#000000"/><path d="M1142.6 719.7c-9.1-36.9-12.1-74.7-22-111.2-7.7-28.1-13.9-56.8-23.8-84-7-19.4-13.7-39.1-23-57.8-12.7-25-23.1-51.2-34.4-77-1.3-3-2.9-6.3 1.3-8.8s7.4-.5 9.8 2.6c3.8 5 7.8 10.2 10.6 15.9 10 20.4 19.4 41.1 29.1 61.6a613 613 0 0 1 33.7 95.7c9 31.6 17.5 63.6 21.5 96.6 2.6 21.4 7 42.7 8.6 65.4-3.3 1-6.8 1-11.4 1m-894.4 0c-.6-3 .4-5.8.4-8.7 0-49.6 9.6-98 16.6-146.7 5-35 13.3-69 22.5-102.9a254 254 0 0 1 31.6-69c2.3-3.7 4-10 10-6.9 6.1 3.2 3.2 9 1.4 13.6-7.2 17.6-15.9 34.7-21.8 52.7a748 748 0 0 0-31 138.7q-1.5 12.7-4.9 25c-7.4 28.5-3.8 58.4-10.9 87-1.1 4.7.3 10.1.3 16.2-4.5 1-8.9 1-14.2 1" fill="#000000"/><path fill-rule="evenodd" clip-rule="evenodd" d="M672.9 193.2c-9 6.6-10.5 15.7-3.6 28.3l4 2.7c2.3 1.5 4.3 3 6.5 3.6 9.5 3 17-2 21.6-9.1s5.5-16.9-1.9-22c-7.3-5.1-16.6-10.9-26.6-3.5m5.4 17.4c3.8 2.8 7.6 3.4 10.9-.5a3.4 3.4 0 0 0-1.2-5.3c-4.4-1.6-9.2-2.6-9.7 5.8" fill="#000000"/></g><g id="hair-variant57-ababda4c"><path d="M372 274.8a220 220 0 0 1 53.4-51.7c-8-10-17.8-17.2-21.8-29-2.9-8.8-5.6-17.4-3-26.1 2.9-9.7-1.4-12.6-9.5-15.6-15.9-6-33.7-5-48.7-14-12.7-7.7-25.8-14.5-38.6-22-3.7-2-7.4-5-5.8-10.1s6.3-4 9.8-3.7c22.2 2.7 45 2 66 12.3 9.6 4.8 20.7 6.5 31.2 9.6 6-7 8.9-15 12.5-22.7 16.8-36 47-51.5 84.6-55.6q6.5-.6 12.8 0c14.2.9 25.7-2.4 38.3-11.3 34-24.1 71.8-25.1 110.2-9.3a81 81 0 0 1 33.5 22c4.7 5.7 3.7 14.3 12.1 19.6 9.1-9.3 18.8-18.9 28.2-28.7a38 38 0 0 1 19-12.3c5.3-1.1 10.5-.2 14 4 4.2 4.7 1.6 9.6-1.3 14A319 319 0 0 1 732 88c-6 6.3-9 11.5-4 21 16.7 32.2 10.6 62.2-13.2 90.3l31.4 21.4c45.7 30 99 54.8 115.3 108.2 9.7 31.6 12.1 64.4.2 96.4-7.7 20.7-17.6 52.4-9.5 70.6 8.4 19 23 34.4 34.7 51.5a125 125 0 0 1 23 77.4c-1.1 25.5-8.5 50-29.6 68a51.5 51.5 0 0 0-8.8 69.7c4.4 6 1.6 8.8-4 9.6-8.4 1-16.1-.9-21.7-8-13.7-17.2-18.9-37.7-2.6-63.4 12-19.1 29.2-34.8 35.4-58 7.6-29.1-3.5-52.3-18.4-75.3-9.8-15.2-32.6-36.3-35.6-55.2-4-25 .8-49.4 1-55.5 1.8-62.4-9.6-89.7-60.8-116.4-27-14-65.5 2.9-112-15.4a271 271 0 0 1-78.2-51c-5.8 13-30.7 46.6-51.4 65.3a338 338 0 0 1-70.7 49.2 133 133 0 0 0-68.2 81.7c-5.5 18.3-6 37.6-4.5 56.7.4 5.6 1.4 10.8-6.4 15.9a168 168 0 0 0-12.2-40.7c-8.2-19.2-18.6-36.8-39.2-45.3a10 10 0 0 1-6.7-10c.3-12.2-1.2-24.5 1.6-36.9 5.3-23.1 10-46.4 19.8-68.2 10.1-22.7 21-45 35.3-66.7m-61.3 526.5c-12.1-28.6-5.1-51.7 25.3-67q7-3.3 13.1-7.7c21.7-15.9 18.8-44.6-5.5-57-4.3-2.2-8.2-4.7-10.3-11.1 9.7-6 18.6-13.2 24.9-24 5.1-9.2 10.7-6.7 16 2.8 7.6 13.5 1 28.7 6.4 42.4 2.8 7 4 14.8 5 22.4 4.1 27.8-10 45.4-33.7 56.3a48 48 0 0 0-22.2 23.5c-5.7 10.8-3 16.3 9 19.8 7.6 2.2 15.6 3 20.6 10.8 3.6 5.7 4.5 11 1.7 16.8-3.2 6.7-9.4 9.6-16.3 11-2.4.5-4-.8-5-3-2-5.6 5.4-6.2 5.5-12.7-10-8-26.6-8.8-34.5-23.3" fill="#000000"/></g><g id="mouth-variant10-ababda4c"><path d="M159.8 102c-3.2-2.8-6-6.4-9.7-8.1-18-8.5-31.4-21.7-44-36.9-14-16.7-28-34.4-49-43.4-8-3.5-16.3-7.8-24.7 0C22 23.1 9.6 32 12.4 48.1c2.5 14 11 24.6 22.6 33.8 26.5 21.1 58 26.5 90 30.7 11.8 1.6 25.3 1.5 34.8-10.6" fill="#ffffff"/><path fill-rule="evenodd" clip-rule="evenodd" d="M104.8 37.9a86 86 0 0 0-24-23.6 33 33 0 0 0-14-8q-3-1.1-5.8-2.4C39-6.4 12.9 4.6 3.6 27.2a51 51 0 0 0 16.1 58.2c20.7 17.7 45.5 30 72.1 35.7 22.7 5 45 7.8 67.9.5 8.8-2.8 16-7.1 17.1-16.5 1.1-8.2-3.5-14.4-10.8-18.7q-2.2-1.4-4.3-3.2-2.2-1.8-4.8-3.4c-19.5-11.2-38.2-23-52-42m52 61.3 3 2.8c-9.5 12.1-23 12.2-34.9 10.6-31.8-4.2-63.4-9.6-90-30.7A56 56 0 0 1 12.5 48c-2.6-14.2 7-23 16.5-31.3l3.4-3c8-7.4 15.7-4 23.3-.7l1.5.6c19.9 8.6 33.4 24.8 46.6 40.7L106 57a131 131 0 0 0 44.1 37q3.7 2 6.7 5.3" fill="#000000"/></g><g id="nose-variant04-ababda4c"><path d="M82 56.5a359 359 0 0 1 13.8-16.2c2.5-2.8 6-4 9-1.2 3.5 3 1.3 5.8-.8 8.8-8 11.5-18 21.2-23.5 34.5a43 43 0 0 0-2.3 29.6c5.8 19.9 10.5 40 15.1 60.2q4.8 21.4-16 29-6 2.3-11.7 5c-16.4 8-30.4 1.5-44.4-8.6 3.8-8 9.6-10.7 18.5-5.7 8.7 5 32.7.6 39.6-6.8 4.5-5 1.4-9.7 0-14.4-5.8-19.7-14-38.7-15.6-59.8a69 69 0 0 1 18.4-54.4" fill="#000000"/></g><g id="eyes-variant01-ababda4c"><path d="M224.4 58.4c-4.2-9.5-9.9-15.2-19.8-15.7-6-.3-7-5.1-8.9-9.8 2-1.5 3.5-3.7 5.3-3.8q31.8-2.6 63.5-.1c6 .4 9.3 8 3.2 10.4-10 4-12.5 13.2-18.5 19.8-8.2 9-15.2 9.1-24.8-.8m-191-29.6c12.2.7 23.1 1 34 2 3.6.3 8 1.8 8 6.7 0 5.6-4.6 5.2-8.3 5.1-6.3 0-9.7 2.7-12.5 8.6-3.4 7.4-6.9 15.3-18 14.8-10.5-.5-15.1-7.2-18.1-15.2-2.2-5.7-5-8.4-11-8.2-3.4.1-7.1-.2-7.5-4.9-.4-5 3-6 7-7.2a68 68 0 0 1 26.4-1.7" fill="#000000"/></g><g id="eyebrows-variant01-ababda4c"><path d="M294 29.6c2.6 7.3 5.5 13.5 7 20 1.2 4.9 1.7 10.4-5 12.6-7.6 2.6-8.6-3.4-10.6-7.8a120 120 0 0 1-5.5-14.2c-1.5-4.9-4.3-7-9.4-6.8-5 .1-8 3-9.3 7.2q-2.5 8-4 16.1c-1 4.5-4.2 4.8-7.8 4.6q-5.2-.2-5.9-5.5c-3.2-20.1 6.1-38.2 25.9-41.2 12.2-2 19 4.5 24.5 15M49.6 33C64.7 12.5 79 8.5 93.6 21.7c9.1 8.3 8.7 21.2 10.7 32.6.5 3-2 5.7-5.3 6.3-3.5.7-7-1.2-8.4-4.4-1.7-4-2.2-8.3-3.6-12.2-1.7-4.8-3.2-10-9.7-10.5s-10.6 3-13.2 8c-3.6 7.2-4.8 20-15.7 14.7-10.4-5-1.9-14.7 1.2-23.2" fill="#000000"/></g><clipPath id="clip-ababda4c"><rect width="1744" height="1744" rx="0" ry="0"/></clipPath></defs><g clip-path="url(#clip-ababda4c)"><rect width="1744" height="1744" fill="#f5e9df"/><use transform="translate(532 491)" href="#head-variant01-ababda4c"/><use transform="translate(151 1029.3)" href="#clothes-variant21-ababda4c"/><use transform="translate(266 221.9)" href="#hair-variant57-ababda4c"/><use transform="translate(791 872)" href="#mouth-variant10-ababda4c"/><use transform="translate(901 669)" href="#nose-variant04-ababda4c"/><use transform="translate(805.2 732.6)" href="#eyes-variant01-ababda4c"/><use transform="translate(775 657)" href="#eyebrows-variant01-ababda4c"/></g></svg>