<?xml version="1.0" encoding="UTF-8" standalone="no"?>
<!-- Created with Inkscape (http://www.inkscape.org/) -->

<svg
   xmlns:dc="http://purl.org/dc/elements/1.1/"
   xmlns:cc="http://creativecommons.org/ns#"
   xmlns:rdf="http://www.w3.org/1999/02/22-rdf-syntax-ns#"
   xmlns:svg="http://www.w3.org/2000/svg"
   xmlns="http://www.w3.org/2000/svg"
   xmlns:sodipodi="http://sodipodi.sourceforge.net/DTD/sodipodi-0.dtd"
   xmlns:inkscape="http://www.inkscape.org/namespaces/inkscape"
   width="300"
   height="300"
   id="svg2"
   version="1.1"
   inkscape:version="0.48.3.1 r9886"
   sodipodi:docname="家-.svg">
  <defs
     id="defs4" />
  <sodipodi:namedview
     id="base"
     pagecolor="#ffffff"
     bordercolor="#666666"
     borderopacity="1.0"
     inkscape:pageopacity="0.0"
     inkscape:pageshadow="2"
     inkscape:zoom="1.979899"
     inkscape:cx="90.977975"
     inkscape:cy="152.80383"
     inkscape:document-units="px"
     inkscape:current-layer="layer1"
     showgrid="false"
     inkscape:window-width="1215"
     inkscape:window-height="1000"
     inkscape:window-x="65"
     inkscape:window-y="24"
     inkscape:window-maximized="1" />
  <metadata
     id="metadata7">
    <rdf:RDF>
      <cc:Work
         rdf:about="">
        <dc:format>image/svg+xml</dc:format>
        <dc:type
           rdf:resource="http://purl.org/dc/dcmitype/StillImage" />
        <dc:title></dc:title>
      </cc:Work>
    </rdf:RDF>
  </metadata>
  <g
     inkscape:label="Calque 1"
     inkscape:groupmode="layer"
     id="layer1"
     transform="translate(0,-752.36218)">
    <path
       style="fill:#000000"
       d="m 153.89092,1023.2859 c -0.16385,-11.3258 9.05917,-21.163 11.95776,-32.2299 5.10406,-7.03182 9.09662,-19.8786 -4.7464,-15.65101 -11.37774,-0.16434 -22.96526,2.28049 -34.21435,0.11892 -5.74281,-9.19072 15.26039,-8.98836 21.2924,-11.06691 8.28366,-4.19873 28.91203,4.52364 26.20186,-9.94739 -0.93461,-11.09709 -9.76659,-18.76696 -13.57909,-28.27413 -10.14715,-1.37027 -15.83314,12.10573 -25.13427,15.592 -7.10747,3.35402 -16.16943,12.30854 -22.30551,11.67156 1.4198,-11.57432 14.51286,-16.30452 21.07385,-24.93228 7.88777,-8.72262 17.67978,-16.18883 23.53893,-26.45045 3.39977,-9.12639 -3.89541,-15.83574 -11.78583,-9.25393 -13.98878,6.11234 -28.55024,10.8432 -42.83113,16.14268 -10.91884,-3.33195 7.12424,-15.89758 13.40152,-16.48611 16.16147,-7.41332 32.81792,-15.16924 45.83761,-27.51387 0.84617,-6.34239 -14.21909,-8.82765 -20.3231,-11.93411 -8.86232,-3.97551 -23.71142,-2.52529 -26.97729,-13.42519 9.30969,-7.08431 22.82968,1.12759 32.81682,4.54306 13.03635,3.93387 25.84304,9.55665 37.16832,17.12373 8.75444,10.2253 17.41003,21.14403 23.0943,33.23549 4.14243,5.05167 0.79501,22.08661 -4.78698,9.62228 -7.19863,-11.3482 -15.14484,-23.89223 -27.82835,-29.5414 -9.20424,3.2189 -1.71606,19.78982 -5.80201,28.06916 -5.29458,12.20822 6.22714,20.77099 10.96424,30.60467 4.70371,9.44728 9.56374,19.24355 10.36552,29.88439 10.38568,2.51046 18.25699,12.72158 19.20651,23.58282 1.63377,12.67452 3.39398,25.56822 2.33725,38.33982 -9.81453,-3.5797 -6.99703,-19.1605 -10.75836,-27.8241 -2.46145,-6.908 -7.73174,-27.24776 -17.19131,-19.42897 -3.43467,12.18717 -10.08414,23.62617 -18.43347,33.07757 -3.32892,3.3935 -6.47353,18.9475 -12.55944,12.3516 z m -96.565054,-13.5646 c -4.025133,-10.0851 -1.861104,-21.6081 -2.640194,-32.29674 0.483718,-14.7752 -2.962738,-29.3215 -1.225302,-44.07749 2.267591,-26.48605 3.377907,-53.12652 6.814339,-79.48136 6.47675,-20.40502 24.306315,-38.24247 46.112891,-40.94117 9.58612,-4.79796 20.7904,-7.17835 30.18585,-13.12075 9.76326,-5.65503 6.0718,-20.03898 11.51965,-29.32734 5.69854,-13.92221 12.09185,6.29149 10.2634,12.98808 1.72596,11.1743 13.9945,16.36591 23.321,20.05893 7.15365,6.2041 17.33776,8.91454 25.32116,14.70187 11.8188,6.49883 24.35562,15.68589 25.99332,30.17843 8.42735,29.26715 7.22958,60.05281 7.94098,90.19163 -0.0717,23.45885 0.34068,46.95957 -0.91407,70.38601 -6.46808,11.0675 -8.91808,-10.7353 -8.97095,-16.3171 -2.74695,-24.92695 -0.92477,-50.09182 -3.9756,-74.99655 -1.89781,-24.06396 1.43905,-49.45507 -8.76872,-72.1039 -5.21251,-6.51841 -10.74881,-13.90027 -18.46277,-16.09766 -9.3544,-2.08261 -18.11309,-6.41312 -27.06297,-9.76741 -11.35284,-5.56722 -25.77617,-7.497 -37.00743,-0.59495 -10.7093,1.07603 -20.83593,3.94618 -30.82139,7.14844 -14.617034,2.89036 -29.8223,13.45125 -31.549144,29.37266 -3.8718,26.37259 -1.673704,53.302 -5.752263,79.65187 -3.297907,16.19643 -1.506444,33.03988 -2.516842,49.50437 -1.052919,8.08883 0.357285,22.19133 -5.829183,26.55243 l -1.975762,-1.6123 0,0 z"
       id="path3042"
       inkscape:connector-curvature="0" />
  </g>
</svg>
